<svg width="16" height="16" viewBox="0 0 16 16" fill="none" xmlns="http://www.w3.org/2000/svg">
<g clip-path="url(#clip0_3393_461892)">
<path d="M3.21019 8.77082C3.30206 9.07051 3.39704 9.38044 3.44444 9.6926C3.46381 9.81982 3.53979 10.7452 3.58086 11.2536C3.5966 11.4484 3.74431 11.6067 3.93754 11.6359L4.6126 11.738C4.70993 11.7527 4.78755 11.827 4.8065 11.9236L4.89545 12.3785C4.93411 12.5762 5.10742 12.7188 5.30888 12.7187L10.5439 12.7156C10.7419 12.7155 10.913 12.5775 10.9551 12.3841L11.0569 11.9157C11.0794 11.8232 11.1558 11.7538 11.25 11.7401L12.0718 11.6207C12.2693 11.592 12.4195 11.4287 12.4315 11.2295C12.4631 10.7064 12.5219 9.75409 12.5402 9.62361C12.5834 9.31553 12.6743 9.01101 12.7621 8.71474C12.8852 8.30018 13.0125 7.87226 13.0125 7.42722C13.0127 4.58515 10.7537 2.27344 7.97704 2.27344C5.20041 2.27344 2.94141 4.58641 2.94141 7.4291C2.94143 7.89399 3.07806 8.33979 3.21019 8.77082ZM8.6332 8.50855C8.66512 7.70131 9.38901 7.49833 10.1963 7.53022C11.0035 7.56214 11.5884 7.81689 11.5565 8.62413C11.5245 9.43137 10.8443 10.0599 10.037 10.028C9.2298 9.99605 8.60128 9.31579 8.6332 8.50855ZM8.15827 10.0926L8.68224 10.8685C8.72873 10.9373 8.73508 11.0256 8.69895 11.1004L8.62378 11.256C8.58486 11.3365 8.50329 11.3877 8.41385 11.3877H7.96504H7.51623C7.42677 11.3877 7.3452 11.3365 7.3063 11.256L7.23113 11.1004C7.195 11.0256 7.20138 10.9373 7.24784 10.8685L7.77181 10.0926C7.86426 9.95566 8.06582 9.95566 8.15827 10.0926ZM5.75775 7.53025C6.56499 7.49833 7.28888 7.70131 7.3208 8.50857C7.35273 9.31582 6.7242 9.99608 5.91696 10.028C5.10972 10.0599 4.42946 9.4314 4.39754 8.62416C4.36562 7.81689 4.9505 7.56214 5.75775 7.53025Z" fill="#828FFF"/>
<path d="M14.5461 1.53205C14.6089 1.14643 14.4914 0.737149 14.1931 0.440364C13.714 -0.0363416 12.9324 -0.0450213 12.4434 0.421515C11.932 0.909332 11.9248 1.71945 12.4217 2.21634L11.965 2.67307C11.7825 2.85558 11.7825 3.15148 11.965 3.33399L12.7441 4.11312C12.9266 4.29563 13.2225 4.29563 13.405 4.11312L13.8617 3.65639C14.3587 4.15331 15.1688 4.14606 15.6566 3.63474C16.1231 3.14572 16.1144 2.36405 15.6377 1.88497C15.3409 1.58667 14.9317 1.46925 14.5461 1.53205Z" fill="#828FFF"/>
<path d="M2.1392 3.65637L2.59593 4.1131C2.77844 4.29561 3.07434 4.29561 3.25682 4.1131L4.03596 3.33396C4.21847 3.15145 4.21847 2.85556 4.03596 2.67305L3.57923 2.21632C4.07614 1.71943 4.0689 0.909309 3.55758 0.421492C3.06856 -0.0450179 2.28692 -0.0363382 1.8078 0.440368C1.50953 0.737152 1.39212 1.14643 1.45492 1.53205C1.06929 1.46926 0.66004 1.58667 0.363229 1.88494C-0.113477 2.36403 -0.122183 3.1457 0.344353 3.63472C0.83217 4.14604 1.64229 4.15326 2.1392 3.65637Z" fill="#828FFF"/>
<path d="M15.6566 12.3643C15.1688 11.8529 14.3586 11.8457 13.8617 12.3426L13.405 11.8859C13.2225 11.7034 12.9266 11.7034 12.7441 11.8859L11.965 12.665C11.7825 12.8476 11.7825 13.1434 11.965 13.326L12.4217 13.7827C11.9248 14.2796 11.932 15.0897 12.4434 15.5775C12.9324 16.044 13.7141 16.0354 14.1931 15.5587C14.4914 15.2619 14.6089 14.8526 14.5461 14.467C14.9317 14.5298 15.3409 14.4124 15.6377 14.1141C16.1144 13.635 16.1231 12.8533 15.6566 12.3643Z" fill="#828FFF"/>
<path d="M1.45488 14.467C1.39208 14.8526 1.50949 15.2619 1.80779 15.5587C2.2869 16.0354 3.06855 16.044 3.55757 15.5775C4.06889 15.0897 4.07611 14.2796 3.57922 13.7827L4.03595 13.326C4.21846 13.1435 4.21846 12.8476 4.03595 12.665L3.25681 11.8859C3.0743 11.7034 2.77841 11.7034 2.59592 11.8859L2.13919 12.3426C1.64227 11.8457 0.832157 11.8529 0.344366 12.3643C-0.12217 12.8533 -0.11349 13.635 0.363216 14.1141C0.66 14.4124 1.06926 14.5298 1.45488 14.467Z" fill="#828FFF"/>
</g>
<defs>
<clipPath id="clip0_3393_461892">
<rect width="16" height="16" fill="white"/>
</clipPath>
</defs>
</svg>
