<svg width="16" height="16" viewBox="0 0 16 16" fill="none" xmlns="http://www.w3.org/2000/svg">
<path d="M8.022 3.39C8.118 3.39 8.179 3.329 8.2 3.233C8.391 2.119 8.384 2.105 9.56 1.873C9.656 1.853 9.717 1.797 9.717 1.695C9.717 1.599 9.656 1.538 9.56 1.524C8.384 1.305 8.405 1.284 8.2 0.164C8.18 0.068 8.118 0 8.022 0C7.926 0 7.865 0.068 7.844 0.164C7.639 1.271 7.667 1.284 6.484 1.524C6.388 1.538 6.327 1.599 6.327 1.694C6.327 1.797 6.388 1.852 6.491 1.873C7.66 2.098 7.653 2.105 7.844 3.233C7.864 3.329 7.926 3.39 8.022 3.39ZM4.7 8.237C4.85 8.237 4.966 8.127 4.987 7.984C5.219 6.186 5.267 6.172 7.154 5.824C7.22258 5.81652 7.28587 5.78362 7.3314 5.7318C7.37693 5.67997 7.40141 5.61297 7.4 5.544C7.4 5.394 7.29 5.277 7.147 5.264C5.274 5.004 5.219 4.949 4.987 3.11C4.967 2.96 4.857 2.85 4.7 2.85C4.55 2.85 4.44 2.96 4.42 3.117C4.2 4.915 4.126 4.915 2.252 5.263C2.102 5.283 2 5.393 2 5.543C2 5.701 2.102 5.803 2.28 5.823C4.126 6.111 4.2 6.173 4.42 7.97C4.44 8.128 4.55 8.237 4.7 8.237ZM9.52 15.777C9.731 15.777 9.895 15.627 9.93 15.401C10.428 11.731 10.94 11.149 14.585 10.739C14.6897 10.7324 14.7881 10.6866 14.8604 10.6105C14.9328 10.5345 14.9737 10.4339 14.975 10.329C14.975 10.109 14.81 9.946 14.585 9.912C10.975 9.481 10.462 8.955 9.929 5.25C9.889 5.03 9.731 4.88 9.519 4.88C9.307 4.88 9.143 5.03 9.109 5.25C8.609 8.927 8.097 9.508 4.454 9.912C4.228 9.939 4.064 10.11 4.064 10.329C4.064 10.541 4.228 10.712 4.454 10.739C8.056 11.231 8.555 11.703 9.109 15.401C9.149 15.627 9.308 15.777 9.52 15.777Z" fill="#828FFF"/>
</svg>
