<svg width="16" height="16" viewBox="0 0 16 16" fill="none" xmlns="http://www.w3.org/2000/svg">
<path d="M1.45019 3.38184H14.541C14.9785 3.38184 15.3271 3.00586 15.3271 2.5752C15.3271 2.13086 14.9853 1.77539 14.541 1.77539H1.45019C1.00586 1.77539 0.664062 2.14453 0.664062 2.5752C0.664062 2.99902 1.01269 3.38184 1.45019 3.38184ZM1.45019 6.96387H14.541C14.9785 6.96387 15.3271 6.58789 15.3271 6.15723C15.3271 5.71973 14.9853 5.35742 14.541 5.35742H1.45019C1.00586 5.35742 0.664062 5.72656 0.664062 6.15723C0.664062 6.58105 1.01269 6.96387 1.45019 6.96387ZM1.45019 10.5527H14.541C14.9785 10.5527 15.3271 10.1768 15.3271 9.74609C15.3271 9.30176 14.9853 8.94629 14.541 8.94629H1.45019C1.00586 8.94629 0.664062 9.31543 0.664062 9.74609C0.664062 10.1699 1.01269 10.5527 1.45019 10.5527ZM1.45019 14.1348H8.44336C8.88086 14.1348 9.22949 13.7588 9.22949 13.3281C9.22949 12.8906 8.88769 12.5283 8.44336 12.5283H1.45019C1.00586 12.5283 0.664062 12.8975 0.664062 13.3281C0.664062 13.752 1.01269 14.1348 1.45019 14.1348Z" fill="#828FFF"/>
</svg>
