<svg width="16" height="16" viewBox="0 0 16 16" fill="none" xmlns="http://www.w3.org/2000/svg">
<path d="M12.6316 6.89474L16 15H14.3502L13.4308 12.7895H10.2997L9.38182 15H7.73282L11.1005 6.89474H12.6316ZM6.1244 1V2.47368H10.7177V3.94737H9.2111C8.62055 5.65837 7.67809 7.23737 6.43981 8.59021C6.992 9.06444 7.59097 9.48569 8.22813 9.848L7.65321 11.2318C6.83062 10.7828 6.06132 10.2488 5.35885 9.63947C3.99126 10.8307 2.37171 11.7227 0.611675 12.2538L0.20134 10.8324C1.70935 10.3696 3.09896 9.6058 4.27943 8.59095C3.4057 7.63887 2.67794 6.57146 2.11828 5.42105H3.83311C4.25979 6.17916 4.77142 6.89002 5.35885 7.54095C6.31587 6.47923 7.07009 5.26285 7.5866 3.94811L0 3.94737V2.47368H4.5933V1H6.1244ZM11.866 9.02053L10.9114 11.3158H12.8191L11.866 9.02053Z" fill="#828FFF"/>
</svg>
