<svg width="16" height="16" viewBox="0 0 16 16" fill="none" xmlns="http://www.w3.org/2000/svg">
<path d="M10.0375 1.6795L14.0297 5.67169C15.2533 4.46856 15.349 2.82793 14.1117 1.59747C12.8813 0.373832 11.2475 0.455864 10.0375 1.6795ZM8.16447 14.948C8.58146 14.948 8.90959 14.6268 8.90959 14.2098L8.92326 9.26739L10.9193 7.41485C11.726 7.49004 12.5531 7.15508 13.2504 6.44415L9.26506 2.45196C8.55412 3.15606 8.23283 3.96954 8.31486 4.78301L1.97795 11.5916C1.69084 11.8992 1.67033 12.282 2.00529 12.6717L1.08244 13.8406C0.959397 13.9978 0.973069 14.2234 1.13029 14.3807L1.32853 14.5857C1.48576 14.743 1.70451 14.7566 1.88225 14.6199L3.04436 13.6971C3.42717 14.0389 3.81682 14.0115 4.1176 13.7312L7.42619 10.6619V14.2098C7.42619 14.6268 7.75432 14.948 8.16447 14.948ZM2.90764 12.1932L8.77971 6.03399C8.88908 6.21172 9.01896 6.37579 9.16936 6.53301C9.32658 6.69708 9.49064 6.83379 9.65471 6.94317L3.51603 12.8084L2.90764 12.1932Z" fill="#828FFF"/>
</svg>
